<svg xmlns="http://www.w3.org/2000/svg" xmlns:xlink="http://www.w3.org/1999/xlink" width="1634" zoomAndPan="magnify" viewBox="0 0 1225.5 1177.49997" height="1570" preserveAspectRatio="xMidYMid meet" version="1.0"><defs><clipPath id="id1"><path d="M 714 234 L 1165 234 L 1165 1092.746094 L 714 1092.746094 Z M 714 234 " clip-rule="nonzero"/></clipPath><clipPath id="id2"><path d="M 1164 867 L 1224.988281 867 L 1224.988281 909 L 1164 909 Z M 1164 867 " clip-rule="nonzero"/></clipPath><clipPath id="id3"><path d="M 0.0117188 867 L 715 867 L 715 909 L 0.0117188 909 Z M 0.0117188 867 " clip-rule="nonzero"/></clipPath><clipPath id="id4"><path d="M 531 84.761719 L 662 84.761719 L 662 278 L 531 278 Z M 531 84.761719 " clip-rule="nonzero"/></clipPath></defs><g clip-path="url(#id1)"><path fill="#cbcbcb" d="M 1118.261719 1092.523438 L 760.828125 1092.523438 C 735.449219 1092.523438 714.875 1071.9375 714.875 1046.566406 L 714.875 280.613281 C 714.875 255.230469 735.449219 234.65625 760.828125 234.65625 L 1118.261719 234.65625 C 1143.640625 234.65625 1164.214844 255.230469 1164.214844 280.613281 L 1164.214844 1046.566406 C 1164.214844 1071.9375 1143.640625 1092.523438 1118.261719 1092.523438 " fill-opacity="1" fill-rule="nonzero"/></g><g clip-path="url(#id2)"><path fill="#ea9d2d" d="M 1225.488281 908.695312 L 1164.214844 908.695312 L 1164.214844 867.84375 L 1225.488281 867.84375 L 1225.488281 908.695312 " fill-opacity="1" fill-rule="nonzero"/></g><path fill="#2ad3b3" d="M 1164.214844 969.96875 L 714.875 969.96875 L 714.875 316.359375 L 1164.214844 316.359375 L 1164.214844 969.96875 " fill-opacity="1" fill-rule="nonzero"/><path fill="#04957c" d="M 755.722656 786.140625 L 714.875 786.140625 L 714.875 745.289062 L 755.722656 745.289062 C 766.980469 745.289062 776.148438 736.125 776.148438 724.863281 C 776.148438 691.074219 803.632812 663.589844 837.421875 663.589844 L 919.121094 663.589844 L 919.121094 704.441406 L 837.421875 704.441406 C 826.160156 704.441406 816.996094 713.59375 816.996094 724.863281 C 816.996094 758.644531 789.511719 786.140625 755.722656 786.140625 " fill-opacity="1" fill-rule="nonzero"/><path fill="#04957c" d="M 1062.09375 704.441406 L 959.96875 704.441406 L 959.96875 663.589844 L 1062.09375 663.589844 L 1062.09375 704.441406 " fill-opacity="1" fill-rule="nonzero"/><path fill="#04957c" d="M 1164.214844 704.441406 L 1102.941406 704.441406 L 1102.941406 663.589844 L 1164.214844 663.589844 L 1164.214844 704.441406 " fill-opacity="1" fill-rule="nonzero"/><g clip-path="url(#id3)"><path fill="#ea9d2d" d="M 714.875 908.695312 L 0.0117188 908.695312 L 0.0117188 867.84375 L 714.875 867.84375 L 714.875 908.695312 " fill-opacity="1" fill-rule="nonzero"/></g><path fill="#fbb540" d="M 510.625 684.015625 L 612.230469 717.875 C 624.738281 722.042969 633.175781 733.75 633.175781 746.945312 L 633.175781 826.992188 L 102.132812 826.992188 L 20.433594 806.566406 L 20.433594 704.441406 L 102.132812 684.015625 L 510.625 684.015625 " fill-opacity="1" fill-rule="nonzero"/><path fill="#bce1ff" d="M 102.132812 684.015625 L 170.03125 599.132812 C 178.757812 588.230469 191.960938 581.886719 205.921875 581.886719 L 406.839844 581.886719 C 420.800781 581.886719 434.003906 588.230469 442.71875 599.132812 L 510.625 684.015625 L 102.132812 684.015625 " fill-opacity="1" fill-rule="nonzero"/><path fill="#f55648" d="M 1039.183594 645.636719 L 939.542969 745.289062 L 839.90625 645.636719 C 812.160156 617.890625 796.570312 580.261719 796.570312 541.035156 C 796.570312 462.066406 860.578125 398.058594 939.542969 398.058594 C 1018.511719 398.058594 1082.515625 462.066406 1082.515625 541.035156 C 1082.515625 580.261719 1066.929688 617.890625 1039.183594 645.636719 " fill-opacity="1" fill-rule="nonzero"/><path fill="#e4e4e2" d="M 878.269531 541.035156 C 878.269531 507.1875 905.707031 479.761719 939.542969 479.761719 C 973.382812 479.761719 1000.820312 507.1875 1000.820312 541.035156 C 1000.820312 574.875 973.382812 602.3125 939.542969 602.3125 C 905.707031 602.3125 878.269531 574.875 878.269531 541.035156 " fill-opacity="1" fill-rule="nonzero"/><path fill="#009cf7" d="M 898.695312 806.566406 L 898.695312 888.269531 L 980.394531 888.269531 L 980.394531 806.566406 L 898.695312 806.566406 " fill-opacity="1" fill-rule="nonzero"/><path fill="#007af6" d="M 959.96875 806.566406 L 959.96875 888.269531 L 980.394531 888.269531 L 980.394531 806.566406 L 959.96875 806.566406 " fill-opacity="1" fill-rule="nonzero"/><path fill="#fbb540" d="M 326.804688 704.441406 L 285.957031 704.441406 L 285.957031 581.886719 L 326.804688 581.886719 L 326.804688 704.441406 " fill-opacity="1" fill-rule="nonzero"/><path fill="#c38325" d="M 347.230469 745.289062 L 347.230469 724.863281 L 306.378906 724.863281 L 306.378906 745.289062 L 265.53125 745.289062 L 265.53125 724.863281 L 224.679688 724.863281 L 224.679688 765.714844 L 265.53125 765.714844 L 265.53125 786.140625 L 306.378906 786.140625 L 306.378906 765.714844 L 347.230469 765.714844 L 347.230469 786.140625 L 388.078125 786.140625 L 388.078125 745.289062 L 347.230469 745.289062 " fill-opacity="1" fill-rule="nonzero"/><path fill="#c38325" d="M 265.53125 520.613281 L 245.105469 581.886719 L 367.652344 581.886719 L 347.230469 520.613281 L 265.53125 520.613281 " fill-opacity="1" fill-rule="nonzero"/><path fill="#fd9226" d="M 326.804688 459.335938 L 285.957031 459.335938 L 285.957031 398.058594 L 326.804688 398.058594 L 326.804688 459.335938 " fill-opacity="1" fill-rule="nonzero"/><path fill="#fd9226" d="M 190.035156 538.292969 L 136.96875 507.65625 L 157.394531 472.28125 L 210.460938 502.917969 L 190.035156 538.292969 " fill-opacity="1" fill-rule="nonzero"/><path fill="#fd9226" d="M 422.726562 538.292969 L 402.300781 502.917969 L 455.367188 472.28125 L 475.792969 507.65625 L 422.726562 538.292969 " fill-opacity="1" fill-rule="nonzero"/><g clip-path="url(#id4)"><path fill="#2ad3b3" d="M 532.476562 277.992188 C 531.53125 270.289062 531.050781 262.703125 531.050781 255.429688 C 531.050781 180.132812 576.148438 113.222656 645.929688 84.976562 L 661.269531 122.835938 C 606.976562 144.816406 571.902344 196.855469 571.902344 255.429688 C 571.902344 261.125 572.269531 266.871094 573.019531 273.015625 L 532.476562 277.992188 " fill-opacity="1" fill-rule="nonzero"/></g><path fill="#2ad3b3" d="M 615.722656 279.914062 C 613.746094 271.90625 612.75 263.660156 612.75 255.429688 C 612.75 208.804688 644.253906 168.132812 689.363281 156.523438 L 699.535156 196.089844 C 672.488281 203.039062 653.597656 227.457031 653.597656 255.429688 C 653.597656 260.367188 654.199219 265.324219 655.382812 270.152344 L 615.722656 279.914062 " fill-opacity="1" fill-rule="nonzero"/><path fill="#e4e4e2" d="M 102.132812 826.992188 C 102.132812 793.140625 129.570312 765.714844 163.40625 765.714844 C 197.246094 765.714844 224.679688 793.140625 224.679688 826.992188 C 224.679688 860.832031 197.246094 888.269531 163.40625 888.269531 C 129.570312 888.269531 102.132812 860.832031 102.132812 826.992188 " fill-opacity="1" fill-rule="nonzero"/><path fill="#e4e4e2" d="M 408.503906 826.992188 C 408.503906 793.140625 435.9375 765.714844 469.777344 765.714844 C 503.617188 765.714844 531.050781 793.140625 531.050781 826.992188 C 531.050781 860.832031 503.617188 888.269531 469.777344 888.269531 C 435.9375 888.269531 408.503906 860.832031 408.503906 826.992188 " fill-opacity="1" fill-rule="nonzero"/><path fill="#0a71cd" d="M 163.40625 790.230469 C 143.140625 790.230469 126.65625 806.714844 126.65625 826.992188 C 126.65625 847.246094 143.140625 863.742188 163.40625 863.742188 C 183.671875 863.742188 200.15625 847.246094 200.15625 826.992188 C 200.15625 806.714844 183.671875 790.230469 163.40625 790.230469 Z M 163.40625 900.496094 C 122.878906 900.496094 89.90625 867.523438 89.90625 826.992188 C 89.90625 786.460938 122.878906 753.480469 163.40625 753.480469 C 203.9375 753.480469 236.910156 786.460938 236.910156 826.992188 C 236.910156 867.523438 203.9375 900.496094 163.40625 900.496094 " fill-opacity="1" fill-rule="nonzero"/><path fill="#0a71cd" d="M 469.777344 790.230469 C 449.511719 790.230469 433.027344 806.714844 433.027344 826.992188 C 433.027344 847.246094 449.511719 863.742188 469.777344 863.742188 C 490.042969 863.742188 506.527344 847.246094 506.527344 826.992188 C 506.527344 806.714844 490.042969 790.230469 469.777344 790.230469 Z M 469.777344 900.496094 C 429.246094 900.496094 396.277344 867.523438 396.277344 826.992188 C 396.277344 786.460938 429.246094 753.480469 469.777344 753.480469 C 510.308594 753.480469 543.277344 786.460938 543.277344 826.992188 C 543.277344 867.523438 510.308594 900.496094 469.777344 900.496094 " fill-opacity="1" fill-rule="nonzero"/><path fill="#ebebeb" d="M 816.996094 908.695312 L 714.875 908.695312 L 714.875 867.84375 L 816.996094 867.84375 L 816.996094 908.695312 " fill-opacity="1" fill-rule="nonzero"/><path fill="#ebebeb" d="M 1021.242188 908.695312 L 857.847656 908.695312 L 857.847656 867.84375 L 1021.242188 867.84375 L 1021.242188 908.695312 " fill-opacity="1" fill-rule="nonzero"/><path fill="#ebebeb" d="M 1164.214844 908.695312 L 1062.09375 908.695312 L 1062.09375 867.84375 L 1164.214844 867.84375 L 1164.214844 908.695312 " fill-opacity="1" fill-rule="nonzero"/></svg>