<svg xmlns="http://www.w3.org/2000/svg" xmlns:xlink="http://www.w3.org/1999/xlink" width="1634" zoomAndPan="magnify" viewBox="0 0 1225.5 1177.49997" height="1570" preserveAspectRatio="xMidYMid meet" version="1.0"><defs><clipPath id="id1"><path d="M 24.011719 1166 L 36 1166 L 36 1176 L 24.011719 1176 Z M 24.011719 1166 " clip-rule="nonzero"/></clipPath><clipPath id="id2"><path d="M 1189 1166 L 1201.488281 1166 L 1201.488281 1176 L 1189 1176 Z M 1189 1166 " clip-rule="nonzero"/></clipPath><clipPath id="id3"><path d="M 27 2 L 1201.488281 2 L 1201.488281 1176 L 27 1176 Z M 27 2 " clip-rule="nonzero"/></clipPath></defs><path fill="#a4bcd1" d="M 704.84375 81.464844 L 704.84375 1096.835938 C 704.84375 1125.40625 688.871094 1150.234375 665.230469 1162.648438 C 655.007812 1168.125 643.140625 1171.226562 630.636719 1171.226562 L 106.429688 1171.226562 C 91.550781 1171.226562 77.585938 1166.84375 65.992188 1159.085938 C 45.457031 1145.941406 32.039062 1122.847656 32.039062 1096.835938 L 32.039062 81.464844 C 32.039062 40.480469 65.445312 7.164062 106.429688 7.164062 L 630.636719 7.164062 C 645.515625 7.164062 659.390625 11.546875 671.164062 19.304688 C 691.519531 32.539062 704.84375 55.449219 704.84375 81.464844 Z M 704.84375 81.464844 " fill-opacity="1" fill-rule="nonzero"/><path fill="#000000" d="M 704.84375 772.34375 L 704.84375 1096.835938 C 704.84375 1125.40625 688.871094 1150.234375 665.230469 1162.648438 C 655.007812 1168.125 643.140625 1171.226562 630.636719 1171.226562 L 571.398438 1171.226562 C 560.351562 1160.914062 551.589844 1148.132812 546.113281 1133.710938 C 510.605469 1126.316406 483.863281 1094.738281 483.863281 1057.128906 L 483.863281 1017.152344 C 483.863281 954.167969 525.757812 900.773438 585.363281 885.070312 L 601.429688 851.296875 C 621.507812 809.765625 660.484375 780.558594 704.84375 772.34375 Z M 704.84375 772.34375 " fill-opacity="0.0471" fill-rule="nonzero"/><path fill="#bcdae6" d="M 598.996094 7.195312 L 255.984375 1171.210938 L 106.371094 1171.210938 C 91.398438 1171.210938 77.445312 1166.789062 65.820312 1159.132812 L 405.257812 7.195312 Z M 598.996094 7.195312 " fill-opacity="1" fill-rule="nonzero"/><path fill="#bcdae6" d="M 671.082031 19.273438 L 331.640625 1171.210938 L 278.726562 1171.210938 L 621.738281 7.195312 L 630.472656 7.195312 C 645.445312 7.195312 659.398438 11.617188 671.082031 19.273438 Z M 671.082031 19.273438 " fill-opacity="1" fill-rule="nonzero"/><path fill="#ffffff" d="M 671.070312 81.472656 L 671.070312 1096.820312 C 671.070312 1119.183594 652.855469 1137.394531 630.585938 1137.394531 L 106.398438 1137.394531 C 84.128906 1137.394531 65.917969 1119.183594 65.917969 1096.820312 L 65.917969 81.472656 C 65.917969 59.203125 84.128906 40.894531 106.398438 40.894531 L 200.007812 40.894531 C 200.007812 60.804688 216.238281 77.035156 236.054688 77.035156 L 529.804688 77.035156 C 549.8125 77.035156 565.851562 60.804688 565.851562 40.894531 L 630.585938 40.894531 C 652.855469 40.894531 671.070312 59.203125 671.070312 81.472656 Z M 671.070312 81.472656 " fill-opacity="1" fill-rule="nonzero"/><path fill="#ffcb8f" d="M 670.890625 262.648438 L 670.890625 914.371094 L 594.765625 865.265625 L 358.355469 712.558594 Z M 670.890625 262.648438 " fill-opacity="1" fill-rule="nonzero"/><path fill="#000000" d="M 670.890625 783.207031 L 670.890625 914.371094 L 594.765625 865.265625 L 601.429688 851.296875 C 616.214844 820.8125 641.132812 796.988281 670.890625 783.207031 Z M 670.890625 783.207031 " fill-opacity="0.0471" fill-rule="nonzero"/><path fill="#00ffc1" d="M 489.308594 839.132812 L 307.753906 1137.414062 L 106.378906 1137.414062 C 84.109375 1137.414062 65.898438 1119.203125 65.898438 1096.835938 L 65.898438 965.578125 C 65.992188 965.578125 66.085938 965.484375 66.085938 965.484375 L 66.085938 810.675781 L 180.457031 639.648438 L 238.582031 677.300781 Z M 489.308594 839.132812 " fill-opacity="1" fill-rule="nonzero"/><path fill="#76819f" d="M 670.851562 262.621094 L 358.316406 712.527344 L 670.851562 914.34375 L 670.851562 956.332031 L 519.058594 858.296875 L 351.746094 1137.515625 L 307.660156 1137.515625 L 489.300781 839.128906 L 180.417969 639.6875 L 66.046875 810.742188 L 66.046875 751.777344 L 150.660156 620.429688 L 66.046875 565.753906 L 66.046875 523.765625 L 328.5625 693.269531 L 670.851562 205.207031 Z M 670.851562 262.621094 " fill-opacity="1" fill-rule="nonzero"/><path fill="#00ffc1" d="M 670.890625 956.359375 L 670.890625 1097.019531 C 670.890625 1119.378906 652.726562 1137.546875 630.273438 1137.546875 L 351.785156 1137.546875 L 519.097656 858.328125 L 536.164062 869.371094 L 568.933594 890.546875 Z M 670.890625 956.359375 " fill-opacity="1" fill-rule="nonzero"/><path fill="#000000" d="M 670.890625 956.359375 L 670.890625 1097.019531 C 670.890625 1119.378906 652.726562 1137.546875 630.273438 1137.546875 L 547.757812 1137.546875 C 547.117188 1136.265625 546.570312 1134.988281 546.113281 1133.710938 C 510.605469 1126.316406 483.863281 1094.738281 483.863281 1057.128906 L 483.863281 1017.152344 C 483.863281 960.101562 518.183594 910.996094 568.933594 890.546875 Z M 670.890625 956.359375 " fill-opacity="0.0471" fill-rule="nonzero"/><path fill="#ffcb8f" d="M 66.042969 751.753906 L 150.691406 620.429688 L 66.042969 565.792969 Z M 66.042969 751.753906 " fill-opacity="1" fill-rule="nonzero"/><path fill="#ff4b3a" d="M 492.527344 431.648438 C 492.527344 540.785156 348.230469 718.246094 348.230469 718.246094 C 348.230469 718.246094 203.890625 540.785156 203.890625 431.648438 C 203.890625 351.949219 268.527344 287.308594 348.230469 287.308594 C 427.929688 287.308594 492.527344 351.949219 492.527344 431.648438 Z M 492.527344 431.648438 " fill-opacity="1" fill-rule="nonzero"/><path fill="#fc6868" d="M 228.898438 431.636719 C 228.898438 521.019531 325.65625 656.210938 360.71875 702.238281 C 352.921875 712.425781 348.214844 718.257812 348.214844 718.257812 C 348.214844 718.257812 203.882812 540.761719 203.882812 431.636719 C 203.882812 351.957031 268.53125 287.308594 348.214844 287.308594 C 352.429688 287.308594 356.574219 287.519531 360.71875 287.941406 C 286.871094 294.195312 228.898438 356.171875 228.898438 431.636719 Z M 228.898438 431.636719 " fill-opacity="1" fill-rule="nonzero"/><path fill="#ffffff" d="M 433.464844 421.410156 C 433.464844 468.507812 395.269531 506.699219 348.171875 506.699219 C 301.148438 506.699219 262.957031 468.507812 262.957031 421.410156 C 262.957031 374.386719 301.148438 336.191406 348.171875 336.191406 C 395.269531 336.191406 433.464844 374.386719 433.464844 421.410156 Z M 433.464844 421.410156 " fill-opacity="1" fill-rule="nonzero"/><path fill="#d4f4ff" d="M 416.160156 369.945312 C 401.898438 359.050781 383.980469 352.585938 364.585938 352.585938 C 317.578125 352.585938 279.351562 390.8125 279.351562 437.820312 C 279.351562 457.214844 285.816406 475.132812 296.707031 489.398438 C 276.1875 473.796875 262.980469 449.136719 262.980469 421.378906 C 262.980469 374.371094 301.132812 336.214844 348.140625 336.214844 C 375.898438 336.214844 400.5625 349.425781 416.160156 369.945312 Z M 416.160156 369.945312 " fill-opacity="1" fill-rule="nonzero"/><path fill="#ff4b3a" d="M 896.773438 758.011719 L 896.773438 797.355469 L 728.992188 797.355469 L 728.992188 758.011719 C 728.992188 747.96875 737.132812 739.828125 747.175781 739.828125 L 878.585938 739.828125 C 888.632812 739.828125 896.773438 747.96875 896.773438 758.011719 Z M 896.773438 758.011719 " fill-opacity="1" fill-rule="nonzero"/><path fill="#ffe93e" d="M 1196.921875 1012.359375 L 1196.921875 1057.40625 C 1196.921875 1085.335938 1174.246094 1108.011719 1146.316406 1108.011719 L 562.191406 1108.011719 C 534.109375 1108.011719 511.285156 1085.1875 511.285156 1057.105469 L 511.285156 1017.164062 C 511.285156 963.105469 550.777344 917.15625 604.234375 909.046875 L 626.160156 863.097656 C 645.53125 823.003906 686.074219 797.328125 730.671875 797.328125 L 908.164062 797.328125 C 932.9375 797.328125 956.363281 808.589844 971.679688 828.109375 L 1037.75 911.601562 L 1139.261719 937.878906 C 1160.882812 943.433594 1178.453125 958 1188.214844 976.921875 C 1193.917969 987.582031 1196.921875 999.59375 1196.921875 1012.359375 Z M 1196.921875 1012.359375 " fill-opacity="1" fill-rule="nonzero"/><path fill="#000000" d="M 1196.921875 1020.769531 L 1196.921875 1057.40625 C 1196.921875 1085.335938 1174.246094 1108.011719 1146.316406 1108.011719 L 562.191406 1108.011719 C 534.109375 1108.011719 511.285156 1085.1875 511.285156 1057.105469 L 511.285156 1020.46875 C 511.285156 1048.546875 534.109375 1071.371094 562.191406 1071.371094 L 1146.316406 1071.371094 C 1174.246094 1071.371094 1196.921875 1048.699219 1196.921875 1020.769531 Z M 1196.921875 1020.769531 " fill-opacity="0.0471" fill-rule="nonzero"/><path fill="#ffffff" d="M 968.828125 945.238281 L 830.679688 945.238281 C 822.269531 945.238281 815.664062 938.480469 815.664062 930.21875 L 815.664062 842.375 C 815.664062 834.117188 822.269531 827.359375 830.679688 827.359375 L 905.761719 827.359375 C 924.980469 827.359375 943 836.519531 954.414062 852.136719 L 990.75 902.289062 C 1003.664062 920.160156 990.902344 945.238281 968.828125 945.238281 Z M 968.828125 945.238281 " fill-opacity="1" fill-rule="nonzero"/><path fill="#ffffff" d="M 779.773438 842.375 L 779.773438 930.21875 C 779.773438 938.480469 773.015625 945.238281 764.757812 945.238281 L 664.75 945.238281 C 662.347656 945.085938 660.09375 944.785156 657.992188 944.035156 C 656.042969 943.433594 654.089844 942.535156 652.4375 941.480469 C 645.230469 937.128906 640.425781 929.167969 640.425781 920.160156 L 640.425781 920.007812 C 640.425781 871.65625 677.515625 831.863281 724.816406 827.808594 C 727.21875 827.511719 729.769531 827.359375 732.324219 827.359375 L 764.757812 827.359375 C 766.410156 827.359375 768.0625 827.660156 769.5625 828.261719 C 775.417969 830.214844 779.773438 835.769531 779.773438 842.375 Z M 779.773438 842.375 " fill-opacity="1" fill-rule="nonzero"/><path fill="#ffff9a" d="M 1196.921875 1012.359375 L 1196.921875 1020.316406 L 1176.953125 1020.316406 C 1164.9375 1020.316406 1155.328125 1010.558594 1155.328125 998.542969 C 1155.328125 986.679688 1164.9375 976.921875 1176.953125 976.921875 L 1188.214844 976.921875 C 1193.917969 987.582031 1196.921875 999.59375 1196.921875 1012.359375 Z M 1196.921875 1012.359375 " fill-opacity="1" fill-rule="nonzero"/><path fill="#d4f4ff" d="M 875.988281 827.359375 L 951.070312 945.238281 L 920.625 945.238281 L 845.546875 827.359375 Z M 875.988281 827.359375 " fill-opacity="1" fill-rule="nonzero"/><path fill="#d4f4ff" d="M 890.691406 827.359375 L 965.773438 945.238281 L 958.480469 945.238281 L 883.398438 827.359375 Z M 890.691406 827.359375 " fill-opacity="1" fill-rule="nonzero"/><path fill="#d4f4ff" d="M 769.5625 828.261719 L 695.082031 945.238281 L 664.75 945.238281 L 739.832031 827.359375 L 764.757812 827.359375 C 766.410156 827.359375 768.0625 827.660156 769.5625 828.261719 Z M 769.5625 828.261719 " fill-opacity="1" fill-rule="nonzero"/><path fill="#d4f4ff" d="M 732.324219 827.359375 L 657.992188 944.035156 C 656.042969 943.433594 654.089844 942.535156 652.4375 941.480469 L 724.816406 827.808594 C 727.21875 827.511719 729.769531 827.359375 732.324219 827.359375 Z M 732.324219 827.359375 " fill-opacity="1" fill-rule="nonzero"/><path fill="#76819f" d="M 1160.472656 1097.652344 C 1160.472656 1138.34375 1127.433594 1171.230469 1086.890625 1171.230469 C 1046.347656 1171.230469 1013.3125 1138.34375 1013.3125 1097.652344 C 1013.3125 1057.105469 1046.347656 1024.222656 1086.890625 1024.222656 C 1127.433594 1024.222656 1160.472656 1057.105469 1160.472656 1097.652344 Z M 1160.472656 1097.652344 " fill-opacity="1" fill-rule="nonzero"/><path fill="#ffffff" d="M 1113.234375 1097.699219 C 1113.234375 1112.265625 1101.40625 1124.039062 1086.890625 1124.039062 C 1072.375 1124.039062 1060.550781 1112.265625 1060.550781 1097.699219 C 1060.550781 1083.183594 1072.375 1071.410156 1086.890625 1071.410156 C 1101.40625 1071.410156 1113.234375 1083.183594 1113.234375 1097.699219 Z M 1113.234375 1097.699219 " fill-opacity="1" fill-rule="nonzero"/><path fill="#000000" d="M 1160.445312 1097.652344 C 1160.445312 1138.34375 1127.410156 1171.230469 1086.867188 1171.230469 C 1061.488281 1171.230469 1039.113281 1158.316406 1025.898438 1138.792969 C 1037.761719 1147.054688 1052.027344 1151.859375 1067.496094 1151.859375 C 1108.039062 1151.859375 1141.074219 1118.972656 1141.074219 1078.277344 C 1141.074219 1063.113281 1136.417969 1049 1128.460938 1037.285156 C 1147.679688 1050.347656 1160.445312 1072.574219 1160.445312 1097.652344 Z M 1160.445312 1097.652344 " fill-opacity="0.0471" fill-rule="nonzero"/><path fill="#384b7d" d="M 1086.894531 1128.605469 C 1069.851562 1128.605469 1055.988281 1114.738281 1055.988281 1097.695312 C 1055.988281 1080.683594 1069.851562 1066.847656 1086.894531 1066.847656 C 1103.9375 1066.847656 1117.796875 1080.683594 1117.796875 1097.695312 C 1117.796875 1114.738281 1103.9375 1128.605469 1086.894531 1128.605469 Z M 1086.894531 1075.972656 C 1074.886719 1075.972656 1065.117188 1085.714844 1065.117188 1097.695312 C 1065.117188 1109.707031 1074.886719 1119.476562 1086.894531 1119.476562 C 1098.902344 1119.476562 1108.671875 1109.707031 1108.671875 1097.695312 C 1108.671875 1085.714844 1098.902344 1075.972656 1086.894531 1075.972656 Z M 1086.894531 1075.972656 " fill-opacity="1" fill-rule="nonzero"/><path fill="#76819f" d="M 714.003906 1097.652344 C 714.003906 1138.34375 680.96875 1171.230469 640.425781 1171.230469 C 599.878906 1171.230469 566.847656 1138.34375 566.847656 1097.652344 C 566.847656 1057.105469 599.878906 1024.222656 640.425781 1024.222656 C 680.96875 1024.222656 714.003906 1057.105469 714.003906 1097.652344 Z M 714.003906 1097.652344 " fill-opacity="1" fill-rule="nonzero"/><path fill="#ffffff" d="M 666.765625 1097.699219 C 666.765625 1112.265625 654.941406 1124.039062 640.425781 1124.039062 C 625.910156 1124.039062 614.082031 1112.265625 614.082031 1097.699219 C 614.082031 1083.183594 625.910156 1071.410156 640.425781 1071.410156 C 654.941406 1071.410156 666.765625 1083.183594 666.765625 1097.699219 Z M 666.765625 1097.699219 " fill-opacity="1" fill-rule="nonzero"/><path fill="#000000" d="M 714.003906 1097.652344 C 714.003906 1138.34375 680.96875 1171.230469 640.425781 1171.230469 C 615.347656 1171.230469 592.972656 1158.617188 579.910156 1139.246094 C 591.621094 1147.203125 605.886719 1151.859375 621.054688 1151.859375 C 661.597656 1151.859375 694.632812 1118.972656 694.632812 1078.277344 C 694.632812 1063.113281 689.976562 1049 682.019531 1037.285156 C 701.390625 1050.5 714.003906 1072.574219 714.003906 1097.652344 Z M 714.003906 1097.652344 " fill-opacity="0.0471" fill-rule="nonzero"/><path fill="#ffffff" d="M 782.398438 785.117188 C 781.988281 784.703125 781.785156 784.195312 781.785156 783.589844 L 781.785156 756.300781 L 772.066406 756.300781 C 771.496094 756.300781 771.019531 756.113281 770.636719 755.730469 C 770.257812 755.351562 770.066406 754.875 770.066406 754.300781 C 770.066406 753.730469 770.257812 753.246094 770.636719 752.851562 C 771.019531 752.453125 771.496094 752.253906 772.066406 752.253906 L 795.78125 752.253906 C 796.355469 752.253906 796.839844 752.453125 797.234375 752.851562 C 797.632812 753.246094 797.832031 753.730469 797.832031 754.300781 C 797.832031 754.875 797.632812 755.351562 797.234375 755.730469 C 796.839844 756.113281 796.355469 756.300781 795.78125 756.300781 L 786.117188 756.300781 L 786.117188 783.589844 C 786.117188 784.195312 785.902344 784.703125 785.472656 785.117188 C 785.042969 785.527344 784.527344 785.734375 783.925781 785.734375 C 783.324219 785.734375 782.816406 785.527344 782.398438 785.117188 Z M 782.398438 785.117188 " fill-opacity="1" fill-rule="nonzero"/><path fill="#ffffff" d="M 800.710938 785.117188 C 799.523438 784.542969 798.578125 783.710938 797.878906 782.617188 C 797.179688 781.519531 796.828125 780.257812 796.828125 778.832031 C 796.828125 776.480469 797.757812 774.605469 799.617188 773.210938 C 801.472656 771.8125 804.195312 771.113281 807.78125 771.113281 L 813.546875 771.113281 L 813.546875 770.734375 C 813.546875 768.636719 813.03125 767.128906 812 766.207031 C 810.96875 765.289062 809.355469 764.828125 807.164062 764.828125 C 805.957031 764.828125 804.886719 764.925781 803.949219 765.113281 C 803.015625 765.304688 801.972656 765.589844 800.828125 765.972656 C 800.578125 766.035156 800.371094 766.0625 800.210938 766.0625 C 799.734375 766.0625 799.320312 765.894531 798.972656 765.542969 C 798.625 765.191406 798.449219 764.765625 798.449219 764.257812 C 798.449219 763.398438 798.859375 762.796875 799.691406 762.449219 C 802.386719 761.304688 805.132812 760.730469 807.925781 760.730469 C 810.117188 760.730469 811.96875 761.175781 813.476562 762.066406 C 814.984375 762.957031 816.09375 764.105469 816.808594 765.519531 C 817.519531 766.933594 817.882812 768.464844 817.882812 770.113281 L 817.882812 783.589844 C 817.882812 784.195312 817.664062 784.703125 817.238281 785.117188 C 816.808594 785.527344 816.292969 785.734375 815.6875 785.734375 C 815.085938 785.734375 814.574219 785.527344 814.164062 785.117188 C 813.753906 784.703125 813.546875 784.195312 813.546875 783.589844 L 813.546875 782.355469 C 811.195312 784.769531 808.210938 785.972656 804.59375 785.972656 C 803.195312 785.972656 801.902344 785.6875 800.710938 785.117188 Z M 810.257812 781.140625 C 811.5625 780.457031 812.65625 779.609375 813.546875 778.589844 L 813.546875 774.589844 L 808.355469 774.589844 C 803.5625 774.589844 801.164062 775.847656 801.164062 778.355469 C 801.164062 779.496094 801.554688 780.414062 802.332031 781.117188 C 803.109375 781.816406 804.402344 782.164062 806.210938 782.164062 C 807.609375 782.164062 808.957031 781.824219 810.257812 781.140625 Z M 810.257812 781.140625 " fill-opacity="1" fill-rule="nonzero"/><path fill="#ffffff" d="M 824.382812 785.140625 C 824.015625 784.746094 823.835938 784.210938 823.835938 783.542969 C 823.835938 783.066406 823.992188 782.625 824.3125 782.210938 L 831.691406 773.492188 L 824.3125 764.496094 C 823.957031 764.050781 823.785156 763.589844 823.785156 763.113281 C 823.785156 762.480469 823.992188 761.964844 824.40625 761.566406 C 824.820312 761.167969 825.328125 760.972656 825.925781 760.972656 C 826.691406 760.972656 827.261719 761.238281 827.644531 761.78125 L 834.3125 770.015625 L 840.929688 761.78125 C 841.308594 761.238281 841.867188 760.972656 842.597656 760.972656 C 843.234375 760.972656 843.753906 761.167969 844.171875 761.566406 C 844.582031 761.964844 844.785156 762.449219 844.785156 763.019531 C 844.785156 763.496094 844.628906 763.941406 844.3125 764.351562 L 836.789062 773.210938 L 844.21875 782.164062 C 844.566406 782.542969 844.738281 783.003906 844.738281 783.542969 C 844.738281 784.148438 844.550781 784.664062 844.171875 785.09375 C 843.785156 785.519531 843.246094 785.734375 842.550781 785.734375 C 841.851562 785.734375 841.292969 785.449219 840.882812 784.875 L 834.121094 776.78125 L 827.738281 784.785156 C 827.261719 785.417969 826.644531 785.734375 825.882812 785.734375 C 825.246094 785.734375 824.746094 785.535156 824.382812 785.140625 Z M 824.382812 785.140625 " fill-opacity="1" fill-rule="nonzero"/><path fill="#ffffff" d="M 851.265625 755.542969 C 850.789062 755.066406 850.550781 754.496094 850.550781 753.824219 L 850.550781 753.636719 C 850.550781 752.96875 850.789062 752.398438 851.265625 751.921875 C 851.742188 751.445312 852.3125 751.207031 852.980469 751.207031 L 853.265625 751.207031 C 853.933594 751.207031 854.503906 751.445312 854.980469 751.921875 C 855.457031 752.398438 855.695312 752.96875 855.695312 753.636719 L 855.695312 753.824219 C 855.695312 754.496094 855.457031 755.066406 854.980469 755.542969 C 854.503906 756.019531 853.933594 756.253906 853.265625 756.253906 L 852.980469 756.253906 C 852.3125 756.253906 851.742188 756.019531 851.265625 755.542969 Z M 851.550781 785.117188 C 851.140625 784.703125 850.933594 784.195312 850.933594 783.589844 L 850.933594 763.160156 C 850.933594 762.558594 851.140625 762.042969 851.550781 761.613281 C 851.964844 761.183594 852.472656 760.972656 853.078125 760.972656 C 853.707031 760.972656 854.234375 761.175781 854.644531 761.589844 C 855.0625 762.003906 855.265625 762.527344 855.265625 763.160156 L 855.265625 783.589844 C 855.265625 784.195312 855.054688 784.703125 854.621094 785.117188 C 854.191406 785.527344 853.675781 785.734375 853.078125 785.734375 C 852.472656 785.734375 851.964844 785.527344 851.550781 785.117188 Z M 851.550781 785.117188 " fill-opacity="1" fill-rule="nonzero"/><g clip-path="url(#id1)"><path fill="#384b7d" d="M 31.390625 1166.664062 L 28.574219 1166.664062 C 26.050781 1166.664062 24.011719 1168.703125 24.011719 1171.226562 C 24.011719 1173.75 26.050781 1175.789062 28.574219 1175.789062 L 31.390625 1175.789062 C 33.914062 1175.789062 35.953125 1173.75 35.953125 1171.226562 C 35.953125 1168.703125 33.914062 1166.664062 31.390625 1166.664062 Z M 31.390625 1166.664062 " fill-opacity="1" fill-rule="nonzero"/></g><g clip-path="url(#id2)"><path fill="#384b7d" d="M 1196.925781 1166.664062 L 1194.324219 1166.664062 C 1191.800781 1166.664062 1189.757812 1168.703125 1189.757812 1171.226562 C 1189.757812 1173.75 1191.800781 1175.789062 1194.324219 1175.789062 L 1196.925781 1175.789062 C 1199.449219 1175.789062 1201.488281 1173.75 1201.488281 1171.226562 C 1201.488281 1168.703125 1199.449219 1166.664062 1196.925781 1166.664062 Z M 1196.925781 1166.664062 " fill-opacity="1" fill-rule="nonzero"/></g><path fill="#384b7d" d="M 314.492188 45.554688 L 422.394531 45.554688 C 424.917969 45.554688 426.960938 43.511719 426.960938 40.988281 C 426.960938 38.46875 424.917969 36.425781 422.394531 36.425781 L 314.492188 36.425781 C 311.972656 36.425781 309.929688 38.46875 309.929688 40.988281 C 309.929688 43.511719 311.972656 45.554688 314.492188 45.554688 Z M 314.492188 45.554688 " fill-opacity="1" fill-rule="nonzero"/><path fill="#384b7d" d="M 445.695312 45.554688 L 454.789062 45.554688 C 457.3125 45.554688 459.351562 43.511719 459.351562 40.988281 C 459.351562 38.46875 457.3125 36.425781 454.789062 36.425781 L 445.695312 36.425781 C 443.171875 36.425781 441.132812 38.46875 441.132812 40.988281 C 441.132812 43.511719 443.171875 45.554688 445.695312 45.554688 Z M 445.695312 45.554688 " fill-opacity="1" fill-rule="nonzero"/><path fill="#384b7d" d="M 348.222656 282.734375 C 266.164062 282.734375 199.351562 349.546875 199.351562 431.605469 C 199.351562 541.140625 338.730469 713.835938 344.664062 721.140625 C 345.578125 722.144531 346.855469 722.78125 348.222656 722.78125 C 349.59375 722.78125 350.871094 722.144531 351.785156 721.140625 C 357.714844 713.835938 497.097656 541.140625 497.097656 431.605469 C 497.097656 349.546875 430.28125 282.734375 348.222656 282.734375 Z M 348.222656 710.917969 C 326.132812 682.804688 208.476562 528.453125 208.476562 431.605469 C 208.476562 354.570312 271.1875 291.859375 348.222656 291.859375 C 425.261719 291.859375 487.96875 354.570312 487.96875 431.605469 C 487.96875 528.453125 370.3125 682.804688 348.222656 710.917969 Z M 348.222656 710.917969 " fill-opacity="1" fill-rule="nonzero"/><path fill="#384b7d" d="M 348.132812 331.660156 C 298.660156 331.660156 258.40625 371.910156 258.40625 421.382812 C 258.40625 470.949219 298.660156 511.292969 348.132812 511.292969 C 397.695312 511.292969 438.039062 470.949219 438.039062 421.382812 C 438.039062 371.910156 397.695312 331.660156 348.132812 331.660156 Z M 348.132812 502.164062 C 303.679688 502.164062 267.535156 465.925781 267.535156 421.382812 C 267.535156 376.933594 303.679688 340.785156 348.132812 340.785156 C 392.675781 340.785156 428.914062 376.933594 428.914062 421.382812 C 428.914062 465.925781 392.675781 502.164062 348.132812 502.164062 Z M 348.132812 502.164062 " fill-opacity="1" fill-rule="nonzero"/><path fill="#384b7d" d="M 814.640625 981.496094 L 850.925781 981.496094 C 853.449219 981.496094 855.492188 979.453125 855.492188 976.933594 C 855.492188 974.410156 853.449219 972.367188 850.925781 972.367188 L 814.640625 972.367188 C 812.117188 972.367188 810.074219 974.410156 810.074219 976.933594 C 810.074219 979.453125 812.117188 981.496094 814.640625 981.496094 Z M 814.640625 981.496094 " fill-opacity="1" fill-rule="nonzero"/><path fill="#384b7d" d="M 730.804688 976.933594 C 730.804688 974.410156 728.761719 972.367188 726.242188 972.367188 L 687.351562 972.367188 C 684.828125 972.367188 682.785156 974.410156 682.785156 976.933594 C 682.785156 979.453125 684.828125 981.496094 687.351562 981.496094 L 726.242188 981.496094 C 728.761719 981.496094 730.804688 979.453125 730.804688 976.933594 Z M 730.804688 976.933594 " fill-opacity="1" fill-rule="nonzero"/><path fill="#384b7d" d="M 830.71875 949.789062 L 968.820312 949.789062 C 980.777344 949.789062 991.546875 943.21875 996.933594 932.539062 C 1002.410156 921.949219 1001.40625 909.261719 994.46875 899.585938 L 958.050781 849.476562 C 945.910156 832.773438 926.285156 822.824219 905.746094 822.824219 L 830.71875 822.824219 C 819.855469 822.824219 811.09375 831.585938 811.09375 842.355469 L 811.09375 930.257812 C 811.09375 941.027344 819.855469 949.789062 830.71875 949.789062 Z M 820.21875 842.355469 C 820.21875 836.515625 824.785156 831.949219 830.71875 831.949219 L 905.746094 831.949219 C 923.453125 831.949219 940.25 840.4375 950.746094 854.769531 L 987.074219 904.972656 C 992.09375 911.910156 992.734375 920.671875 988.808594 928.429688 C 984.886719 936.097656 977.398438 940.660156 968.820312 940.660156 L 830.71875 940.660156 C 824.785156 940.660156 820.21875 936.097656 820.21875 930.257812 Z M 820.21875 842.355469 " fill-opacity="1" fill-rule="nonzero"/><path fill="#384b7d" d="M 635.839844 920.125 C 635.839844 936.464844 649.164062 949.789062 665.503906 949.789062 L 764.722656 949.789062 C 775.585938 949.789062 784.347656 941.027344 784.347656 930.257812 L 784.347656 842.355469 C 784.347656 831.585938 775.585938 822.824219 764.722656 822.824219 L 733.050781 822.824219 C 679.46875 822.824219 635.839844 866.363281 635.839844 920.125 Z M 733.050781 831.949219 L 764.722656 831.949219 C 770.566406 831.949219 775.21875 836.605469 775.21875 842.355469 L 775.21875 930.257812 C 775.21875 936.007812 770.566406 940.660156 764.722656 940.660156 L 665.503906 940.660156 C 654.1875 940.660156 644.964844 931.441406 644.964844 920.03125 C 644.964844 871.472656 684.488281 831.949219 733.050781 831.949219 Z M 733.050781 831.949219 " fill-opacity="1" fill-rule="nonzero"/><g clip-path="url(#id3)"><path fill="#384b7d" d="M 1164.152344 1109.523438 C 1186.242188 1102.132812 1201.484375 1081.046875 1201.484375 1057.40625 L 1201.484375 1012.316406 C 1201.484375 998.898438 1198.382812 986.300781 1192.265625 974.800781 C 1181.679688 954.171875 1162.691406 939.203125 1140.421875 933.542969 L 1040.382812 907.621094 L 975.210938 825.285156 C 959.144531 804.65625 934.683594 792.792969 908.121094 792.792969 L 901.367188 792.792969 L 901.367188 758.015625 C 901.367188 745.511719 891.140625 735.289062 878.546875 735.289062 L 747.199219 735.289062 C 734.601562 735.289062 724.46875 745.511719 724.46875 758.015625 L 724.46875 792.976562 C 719.359375 793.25 714.339844 793.796875 709.410156 794.707031 L 709.410156 81.554688 C 709.410156 38.019531 673.988281 2.601562 630.453125 2.601562 L 106.425781 2.601562 C 62.890625 2.601562 27.476562 38.019531 27.476562 81.554688 L 27.476562 1096.835938 C 27.476562 1127.105469 44.617188 1153.417969 69.6875 1166.664062 L 49.359375 1166.664062 C 46.839844 1166.664062 44.796875 1168.703125 44.796875 1171.226562 C 44.796875 1173.75 46.839844 1175.789062 49.359375 1175.789062 C 599.519531 1175.789062 692.980469 1175.789062 1171.503906 1175.789062 C 1174.027344 1175.789062 1176.066406 1173.75 1176.066406 1171.226562 C 1176.066406 1168.703125 1174.027344 1166.664062 1171.503906 1166.664062 L 1123.628906 1166.664062 C 1144.898438 1155.253906 1160.410156 1134.261719 1164.152344 1109.523438 Z M 1192.359375 1012.316406 L 1192.359375 1015.78125 L 1176.933594 1015.78125 C 1167.53125 1015.78125 1159.863281 1008.023438 1159.863281 998.53125 C 1159.863281 989.128906 1167.53125 981.460938 1176.933594 981.460938 L 1185.421875 981.460938 C 1186.152344 982.832031 1186.699219 984.203125 1187.339844 985.660156 C 1187.703125 986.664062 1188.066406 987.761719 1188.433594 988.765625 C 1188.890625 989.953125 1189.253906 991.230469 1189.621094 992.507812 C 1189.984375 993.695312 1190.257812 994.789062 1190.53125 995.976562 C 1191.71875 1001.269531 1192.359375 1006.746094 1192.359375 1012.316406 Z M 908.121094 801.917969 C 931.851562 801.917969 953.667969 812.507812 968.089844 830.945312 L 1034.175781 914.464844 C 1034.8125 915.285156 1035.636719 915.835938 1036.546875 916.015625 L 1138.140625 942.394531 C 1155.484375 946.6875 1170.453125 957.457031 1180.21875 972.335938 L 1176.933594 972.335938 C 1162.511719 972.335938 1150.734375 984.109375 1150.734375 998.53125 C 1150.734375 1013.042969 1162.511719 1024.910156 1176.933594 1024.910156 L 1192.359375 1024.910156 L 1192.359375 1057.40625 C 1192.359375 1075.660156 1181.40625 1092.183594 1165.066406 1099.394531 L 1165.066406 1097.660156 C 1165.066406 1054.667969 1130.015625 1019.617188 1086.933594 1019.617188 C 1043.851562 1019.617188 1008.707031 1054.667969 1008.707031 1097.660156 C 1008.707031 1099.574219 1008.800781 1101.492188 1008.890625 1103.410156 L 718.355469 1103.410156 C 718.445312 1101.492188 718.535156 1099.574219 718.535156 1097.660156 C 718.535156 1054.667969 683.484375 1019.617188 640.402344 1019.617188 C 597.320312 1019.617188 562.269531 1054.667969 562.269531 1097.660156 C 562.269531 1099.574219 562.359375 1101.492188 562.453125 1103.410156 L 562.179688 1103.410156 C 536.621094 1103.410156 515.808594 1082.691406 515.808594 1057.132812 L 515.808594 1017.152344 C 515.808594 965.761719 554.144531 921.21875 604.894531 913.550781 C 606.449219 913.371094 607.726562 912.457031 608.363281 910.996094 L 630.269531 865.082031 C 639.765625 845.367188 654.734375 829.03125 673.445312 817.894531 C 673.535156 817.894531 673.535156 817.800781 673.628906 817.800781 C 683.578125 811.6875 694.347656 807.304688 705.757812 804.839844 C 705.847656 804.839844 705.847656 804.839844 705.941406 804.839844 C 713.882812 802.921875 722.1875 801.917969 730.675781 801.917969 Z M 640.367188 1166.664062 C 616.011719 1166.652344 594.578125 1153.96875 582.351562 1134.808594 C 575.414062 1124.128906 571.398438 1111.351562 571.398438 1097.660156 C 571.398438 1059.6875 602.339844 1028.746094 640.402344 1028.746094 C 678.464844 1028.746094 709.410156 1059.6875 709.410156 1097.660156 C 709.410156 1135.707031 678.488281 1166.636719 640.445312 1166.664062 Z M 666.507812 811.414062 C 647.339844 823.371094 632.003906 840.53125 622.054688 861.160156 L 601.152344 904.972656 C 547.117188 914.28125 506.679688 962.113281 506.679688 1017.152344 L 506.679688 1057.132812 C 506.679688 1087.710938 531.601562 1112.539062 562.179688 1112.539062 L 563.730469 1112.539062 C 565.097656 1119.65625 567.472656 1126.5 570.667969 1132.800781 L 106.425781 1132.800781 C 86.550781 1132.800781 70.371094 1116.664062 70.371094 1096.835938 L 70.371094 81.554688 C 70.371094 61.679688 86.550781 45.503906 106.425781 45.503906 L 195.679688 45.503906 C 197.953125 65.761719 215.183594 81.554688 236.042969 81.554688 L 529.871094 81.554688 C 550.675781 81.554688 567.867188 65.761719 570.132812 45.503906 L 630.453125 45.503906 C 650.332031 45.503906 666.507812 61.679688 666.507812 81.554688 Z M 717.167969 1112.539062 L 1010.167969 1112.539062 C 1014.730469 1135.996094 1029.789062 1155.707031 1050.234375 1166.664062 L 677.101562 1166.664062 C 697.546875 1155.707031 712.605469 1135.996094 717.167969 1112.539062 Z M 733.597656 758.015625 C 733.597656 750.53125 739.621094 744.414062 747.199219 744.414062 L 878.546875 744.414062 C 886.121094 744.414062 892.238281 750.53125 892.238281 758.015625 L 892.238281 792.792969 L 733.597656 792.792969 Z M 36.605469 1096.835938 L 36.605469 81.554688 C 36.605469 43.054688 67.929688 11.730469 106.425781 11.730469 L 630.453125 11.730469 C 668.960938 11.730469 700.285156 43.054688 700.285156 81.554688 L 700.285156 796.714844 C 700.28125 796.714844 700.28125 796.71875 700.28125 796.71875 C 691.703125 798.90625 683.488281 802.101562 675.636719 806.210938 L 675.636719 81.554688 C 675.636719 56.640625 655.367188 36.375 630.453125 36.375 L 565.828125 36.375 C 563.304688 36.375 561.265625 38.417969 561.265625 40.941406 C 561.265625 58.304688 547.179688 72.429688 529.871094 72.429688 L 236.042969 72.429688 C 218.679688 72.429688 204.550781 58.304688 204.550781 40.941406 C 204.550781 38.417969 202.507812 36.375 199.988281 36.375 L 106.425781 36.375 C 81.511719 36.375 61.242188 56.640625 61.242188 81.554688 L 61.242188 1096.835938 C 61.242188 1121.703125 81.511719 1141.925781 106.425781 1141.925781 L 576.050781 1141.925781 C 576.050781 1141.925781 576.050781 1141.929688 576.050781 1141.929688 C 583.171875 1152.242188 592.664062 1160.730469 603.707031 1166.664062 L 106.425781 1166.664062 C 67.929688 1166.664062 36.605469 1135.339844 36.605469 1096.835938 Z M 1086.984375 1166.664062 L 1086.882812 1166.664062 C 1048.597656 1166.632812 1017.835938 1135.402344 1017.835938 1097.660156 C 1017.835938 1059.6875 1048.871094 1028.746094 1086.933594 1028.746094 C 1124.902344 1028.746094 1155.9375 1059.6875 1155.9375 1097.660156 C 1155.9375 1135.742188 1124.84375 1166.636719 1086.984375 1166.664062 Z M 1086.984375 1166.664062 " fill-opacity="1" fill-rule="nonzero"/></g><path fill="#384b7d" d="M 640.402344 1066.808594 C 623.425781 1066.808594 609.550781 1080.683594 609.550781 1097.660156 C 609.550781 1114.726562 623.425781 1128.601562 640.402344 1128.601562 C 657.472656 1128.601562 671.347656 1114.726562 671.347656 1097.660156 C 671.347656 1080.683594 657.472656 1066.808594 640.402344 1066.808594 Z M 640.402344 1119.476562 C 628.445312 1119.476562 618.679688 1109.707031 618.679688 1097.660156 C 618.679688 1085.703125 628.445312 1075.933594 640.402344 1075.933594 C 652.453125 1075.933594 662.21875 1085.703125 662.21875 1097.660156 C 662.21875 1109.707031 652.453125 1119.476562 640.402344 1119.476562 Z M 640.402344 1119.476562 " fill-opacity="1" fill-rule="nonzero"/><path fill="#384b7d" d="M 689.167969 1022.976562 L 683.847656 1022.976562 L 683.847656 1032.105469 L 694.488281 1032.105469 L 694.488281 1023.4375 L 699.8125 1023.4375 L 699.8125 1014.308594 L 689.167969 1014.308594 Z M 689.167969 1022.976562 " fill-opacity="1" fill-rule="nonzero"/><path fill="#384b7d" d="M 710.445312 1022.976562 L 705.132812 1022.976562 L 705.132812 1032.105469 L 715.765625 1032.105469 L 715.765625 1023.4375 L 721.089844 1023.4375 L 721.089844 1014.308594 L 710.445312 1014.308594 Z M 710.445312 1022.976562 " fill-opacity="1" fill-rule="nonzero"/><path fill="#384b7d" d="M 731.730469 1022.976562 L 726.410156 1022.976562 L 726.410156 1032.105469 L 737.054688 1032.105469 L 737.054688 1023.4375 L 742.375 1023.4375 L 742.375 1014.308594 L 731.730469 1014.308594 Z M 731.730469 1022.976562 " fill-opacity="1" fill-rule="nonzero"/><path fill="#384b7d" d="M 753.019531 1022.976562 L 747.695312 1022.976562 L 747.695312 1032.105469 L 758.332031 1032.105469 L 758.332031 1023.4375 L 763.652344 1023.4375 L 763.652344 1014.308594 L 753.019531 1014.308594 Z M 753.019531 1022.976562 " fill-opacity="1" fill-rule="nonzero"/><path fill="#384b7d" d="M 774.296875 1022.976562 L 768.972656 1022.976562 L 768.972656 1032.105469 L 779.617188 1032.105469 L 779.617188 1023.4375 L 784.9375 1023.4375 L 784.9375 1014.308594 L 774.296875 1014.308594 Z M 774.296875 1022.976562 " fill-opacity="1" fill-rule="nonzero"/><path fill="#384b7d" d="M 816.859375 1022.976562 L 811.539062 1022.976562 L 811.539062 1032.105469 L 822.179688 1032.105469 L 822.179688 1023.4375 L 827.5 1023.4375 L 827.5 1014.308594 L 816.859375 1014.308594 Z M 816.859375 1022.976562 " fill-opacity="1" fill-rule="nonzero"/><path fill="#384b7d" d="M 838.144531 1022.976562 L 832.824219 1022.976562 L 832.824219 1032.105469 L 843.464844 1032.105469 L 843.464844 1023.4375 L 848.789062 1023.4375 L 848.789062 1014.308594 L 838.144531 1014.308594 Z M 838.144531 1022.976562 " fill-opacity="1" fill-rule="nonzero"/><path fill="#384b7d" d="M 859.421875 1022.976562 L 854.101562 1022.976562 L 854.101562 1032.105469 L 864.742188 1032.105469 L 864.742188 1023.4375 L 870.066406 1023.4375 L 870.066406 1014.308594 L 859.421875 1014.308594 Z M 859.421875 1022.976562 " fill-opacity="1" fill-rule="nonzero"/><path fill="#384b7d" d="M 880.707031 1022.976562 L 875.386719 1022.976562 L 875.386719 1032.105469 L 886.03125 1032.105469 L 886.03125 1023.4375 L 891.351562 1023.4375 L 891.351562 1014.308594 L 880.707031 1014.308594 Z M 880.707031 1022.976562 " fill-opacity="1" fill-rule="nonzero"/><path fill="#384b7d" d="M 901.984375 1022.976562 L 896.664062 1022.976562 L 896.664062 1032.105469 L 907.308594 1032.105469 L 907.308594 1023.4375 L 912.628906 1023.4375 L 912.628906 1014.308594 L 901.984375 1014.308594 Z M 901.984375 1022.976562 " fill-opacity="1" fill-rule="nonzero"/><path fill="#384b7d" d="M 923.273438 1022.976562 L 917.949219 1022.976562 L 917.949219 1032.105469 L 928.59375 1032.105469 L 928.59375 1023.4375 L 933.914062 1023.4375 L 933.914062 1014.308594 L 923.273438 1014.308594 Z M 923.273438 1022.976562 " fill-opacity="1" fill-rule="nonzero"/><path fill="#384b7d" d="M 944.550781 1022.976562 L 939.238281 1022.976562 L 939.238281 1032.105469 L 949.871094 1032.105469 L 949.871094 1023.4375 L 955.191406 1023.4375 L 955.191406 1014.308594 L 944.550781 1014.308594 Z M 944.550781 1022.976562 " fill-opacity="1" fill-rule="nonzero"/><path fill="#384b7d" d="M 965.835938 1022.976562 L 960.515625 1022.976562 L 960.515625 1032.105469 L 971.15625 1032.105469 L 971.15625 1023.4375 L 976.476562 1023.4375 L 976.476562 1014.308594 L 965.835938 1014.308594 Z M 965.835938 1022.976562 " fill-opacity="1" fill-rule="nonzero"/><path fill="#384b7d" d="M 987.121094 1022.976562 L 981.800781 1022.976562 L 981.800781 1032.105469 L 992.433594 1032.105469 L 992.433594 1023.4375 L 997.753906 1023.4375 L 997.753906 1014.308594 L 987.121094 1014.308594 Z M 987.121094 1022.976562 " fill-opacity="1" fill-rule="nonzero"/><path fill="#384b7d" d="M 800.902344 1023.4375 L 806.214844 1023.4375 L 806.214844 1014.308594 L 795.582031 1014.308594 L 795.582031 1022.976562 L 790.261719 1022.976562 L 790.261719 1032.105469 L 800.902344 1032.105469 Z M 800.902344 1023.4375 " fill-opacity="1" fill-rule="nonzero"/><path fill="#384b7d" d="M 1013.71875 1023.4375 L 1019.042969 1023.4375 L 1019.042969 1014.308594 L 1008.398438 1014.308594 L 1008.398438 1022.976562 L 1003.078125 1022.976562 L 1003.078125 1032.105469 L 1013.71875 1032.105469 Z M 1013.71875 1023.4375 " fill-opacity="1" fill-rule="nonzero"/><path fill="#384b7d" d="M 1035.007812 1023.4375 L 1040.320312 1023.4375 L 1040.320312 1014.308594 L 1029.683594 1014.308594 L 1029.683594 1022.976562 L 1024.363281 1022.976562 L 1024.363281 1032.105469 L 1035.007812 1032.105469 Z M 1035.007812 1023.4375 " fill-opacity="1" fill-rule="nonzero"/></svg>