<?xml version="1.0" encoding="utf-8"?>
<!-- Generator: Adobe Illustrator 23.1.0, SVG Export Plug-In . SVG Version: 6.00 Build 0)  -->
<svg version="1.1" id="Layer_1" xmlns="http://www.w3.org/2000/svg" xmlns:xlink="http://www.w3.org/1999/xlink" x="0px" y="0px"
	 viewBox="0 0 1920 1080" style="enable-background:new 0 0 1920 1080;" xml:space="preserve">
<style type="text/css">
	.st0{fill:#EE3135;}
	.st1{fill:#FFFFFF;}
</style>
<rect x="-12.4" y="-14.5" class="st0" width="2075.5" height="1249"/>
<g>
	<path class="st1" d="M923.5,582.9c-11.8,0-21.3,9.6-21.3,21.3c0,11.8,9.6,21.3,21.3,21.3s21.3-9.6,21.3-21.3
		S935.2,582.9,923.5,582.9z M1038.6,422.9c19.5,0,35.4-16.6,35.4-37.1s-15.8-37.1-35.4-37.1s-35.4,16.6-35.4,37.1
		C1003.2,406.3,1019,422.9,1038.6,422.9z M1115.9,192.2v96.6c-43.1,0.1-86.1,0.9-129.2,2.5c-35.6,3.3-70.3,24.4-80.5,55.5
		l-37.3,114.1c-42.2,5.1-75,41.1-75,84.7v143.9c0,24.2,19.7,43.9,43.9,43.9h1v47.7c0,20.4,16.5,36.9,36.9,36.9h47.1
		c20.4,0,36.9-16.5,36.9-36.9v-47.8h92.4V758h64v129.8h10.3V192.2H1115.9z M923.5,650c-25.3,0-45.8-20.5-45.8-45.8
		c0-25.3,20.5-45.8,45.8-45.8c25.2,0,45.8,20.5,45.8,45.8C969.3,629.5,948.7,650,923.5,650z M1115.9,643.3h-76.8
		c-7.5,0-13.7-6.1-13.7-13.7s6.1-13.7,13.7-13.7h76.8V643.3z M1115.9,592.4h-47.2c-7.5,0-13.7-6.1-13.7-13.7s6.1-13.7,13.7-13.7
		h47.2V592.4z M1115.9,460.3h-10.8c-9.1-25.1-39.1-34.8-46.7-36.8c-5.7,4-12.5,6.4-19.8,6.4s-14.1-2.4-19.8-6.4
		c-1.5,0.4-3.8,1-6.6,2.1l17.5,17.5c3-0.6,6-1,9.2-1c14.7,0,27.7,7.1,35.8,18.1h-14c-6.1-4.9-13.5-7.9-21.7-7.9l7.9,7.9h-19.4
		l-4-4.3c-2.3,1.2-4.5,2.6-6.5,4.3h-14.1c3.5-4.8,7.9-8.8,13-11.8l-16.9-16.9c-10.2,5.7-21.3,14.8-26.2,28.7h-74.3l34.3-104.7
		c6.4-19.6,31.1-36.2,53.9-36.2h129.2L1115.9,460.3L1115.9,460.3z"/>
</g>
</svg>
