<?xml version="1.0" encoding="UTF-8"?>
<svg xmlns="http://www.w3.org/2000/svg" xmlns:xlink="http://www.w3.org/1999/xlink" width="960pt" height="540pt" viewBox="0 0 960 540" version="1.1">
<g id="surface1">
<rect x="0" y="0" width="960" height="540" style="fill:rgb(93.333333%,19.215686%,20.784314%);fill-opacity:1;stroke:none;"/>
<path style=" stroke:none;fill-rule:nonzero;fill:rgb(100%,100%,100%);fill-opacity:1;" d="M 461.75 291.449219 C 455.851562 291.449219 451.101562 296.25 451.101562 302.101562 C 451.101562 308 455.898438 312.75 461.75 312.75 C 467.601562 312.75 472.398438 307.949219 472.398438 302.101562 C 472.398438 296.25 467.601562 291.449219 461.75 291.449219 Z M 519.300781 211.449219 C 529.050781 211.449219 537 203.148438 537 192.898438 C 537 182.648438 529.101562 174.351562 519.300781 174.351562 C 509.5 174.351562 501.601562 182.648438 501.601562 192.898438 C 501.601562 203.148438 509.5 211.449219 519.300781 211.449219 Z M 557.949219 96.101562 L 557.949219 144.398438 C 536.398438 144.449219 514.898438 144.851562 493.351562 145.648438 C 475.550781 147.300781 458.199219 157.851562 453.101562 173.398438 L 434.449219 230.449219 C 413.351562 233 396.949219 251 396.949219 272.800781 L 396.949219 344.75 C 396.949219 356.851562 406.800781 366.699219 418.898438 366.699219 L 419.398438 366.699219 L 419.398438 390.550781 C 419.398438 400.75 427.648438 409 437.851562 409 L 461.398438 409 C 471.601562 409 479.851562 400.75 479.851562 390.550781 L 479.851562 366.648438 L 526.050781 366.648438 L 526.050781 379 L 558.050781 379 L 558.050781 443.898438 L 563.199219 443.898438 L 563.199219 96.101562 Z M 461.75 325 C 449.101562 325 438.851562 314.75 438.851562 302.101562 C 438.851562 289.449219 449.101562 279.199219 461.75 279.199219 C 474.351562 279.199219 484.648438 289.449219 484.648438 302.101562 C 484.648438 314.75 474.351562 325 461.75 325 Z M 557.949219 321.648438 L 519.550781 321.648438 C 515.800781 321.648438 512.699219 318.601562 512.699219 314.800781 C 512.699219 311 515.75 307.949219 519.550781 307.949219 L 557.949219 307.949219 Z M 557.949219 296.199219 L 534.351562 296.199219 C 530.601562 296.199219 527.5 293.148438 527.5 289.351562 C 527.5 285.550781 530.550781 282.5 534.351562 282.5 L 557.949219 282.5 Z M 557.949219 230.148438 L 552.550781 230.148438 C 548 217.601562 533 212.75 529.199219 211.75 C 526.351562 213.75 522.949219 214.949219 519.300781 214.949219 C 515.648438 214.949219 512.25 213.75 509.398438 211.75 C 508.648438 211.949219 507.5 212.25 506.101562 212.800781 L 514.851562 221.550781 C 516.351562 221.25 517.851562 221.050781 519.449219 221.050781 C 526.800781 221.050781 533.300781 224.601562 537.351562 230.101562 L 530.351562 230.101562 C 527.300781 227.648438 523.601562 226.148438 519.5 226.148438 L 523.449219 230.101562 L 513.75 230.101562 L 511.75 227.949219 C 510.601562 228.550781 509.5 229.25 508.5 230.101562 L 501.449219 230.101562 C 503.199219 227.699219 505.398438 225.699219 507.949219 224.199219 L 499.5 215.75 C 494.398438 218.601562 488.851562 223.148438 486.398438 230.101562 L 449.25 230.101562 L 466.398438 177.75 C 469.601562 167.949219 481.949219 159.648438 493.351562 159.648438 L 557.949219 159.648438 Z M 557.949219 230.148438 "/>
</g>
</svg>
